<?xml version="1.0" encoding="UTF-8" standalone="no"?>
<!-- Created with Inkscape (http://www.inkscape.org/) -->

<svg
   xmlns:dc="http://purl.org/dc/elements/1.1/"
   xmlns:cc="http://creativecommons.org/ns#"
   xmlns:rdf="http://www.w3.org/1999/02/22-rdf-syntax-ns#"
   xmlns:svg="http://www.w3.org/2000/svg"
   xmlns="http://www.w3.org/2000/svg"
   xmlns:xlink="http://www.w3.org/1999/xlink"
   version="1.1"
   width="404.8688"
   height="379.91138"
   id="svg2">
  <defs
     id="defs4">
    <linearGradient
       id="linearGradient4192">
      <stop
         id="stop4194"
         style="stop-color:#ffbd00;stop-opacity:1"
         offset="0" />
      <stop
         id="stop4196"
         style="stop-color:#fff3d0;stop-opacity:1"
         offset="1" />
    </linearGradient>
    <linearGradient
       x1="166.95419"
       y1="48.512695"
       x2="171.73305"
       y2="48.512695"
       id="linearGradient4725"
       xlink:href="#linearGradient3805-8"
       gradientUnits="userSpaceOnUse" />
    <linearGradient
       x1="166.95419"
       y1="48.512695"
       x2="171.73305"
       y2="48.512695"
       id="linearGradient4719"
       xlink:href="#linearGradient3805-8"
       gradientUnits="userSpaceOnUse" />
    <linearGradient
       x1="38.227654"
       y1="13.602527"
       x2="37.53537"
       y2="6.6285896"
       id="linearGradient3863"
       xlink:href="#linearGradient3077-1"
       gradientUnits="userSpaceOnUse"
       gradientTransform="matrix(0.87827,0,0,0.87827,150.91626,23.296793)" />
    <linearGradient
       id="linearGradient3850">
      <stop
         id="stop3852"
         style="stop-color:#98a0a9;stop-opacity:1"
         offset="0" />
      <stop
         id="stop3854"
         style="stop-color:#c3d0dd;stop-opacity:1"
         offset="1" />
    </linearGradient>
    <linearGradient
       x1="38.227654"
       y1="13.602527"
       x2="37.53537"
       y2="6.6285896"
       id="linearGradient3760-1"
       xlink:href="#linearGradient3077-1"
       gradientUnits="userSpaceOnUse"
       gradientTransform="matrix(0.87827,0,0,0.87827,1.8671111,3.903835)" />
    <linearGradient
       id="linearGradient3041-0">
      <stop
         id="stop3043-0"
         style="stop-color:#000000;stop-opacity:1"
         offset="0" />
      <stop
         id="stop3045-8"
         style="stop-color:#000000;stop-opacity:0"
         offset="1" />
    </linearGradient>
    <radialGradient
       cx="24.8125"
       cy="39.125"
       r="17.6875"
       fx="24.8125"
       fy="39.125"
       id="radialGradient3145-0"
       xlink:href="#linearGradient3041-0"
       gradientUnits="userSpaceOnUse"
       gradientTransform="matrix(1,0,0,0.374558,0,24.47041)" />
    <linearGradient
       id="linearGradient3061-4">
      <stop
         id="stop3063-2"
         style="stop-color:#ffffff;stop-opacity:1"
         offset="0" />
      <stop
         id="stop3065-0"
         style="stop-color:#000000;stop-opacity:1"
         offset="1" />
    </linearGradient>
    <linearGradient
       x1="50.152931"
       y1="-3.6324477"
       x2="25.291086"
       y2="-4.3002653"
       id="linearGradient3067-4"
       xlink:href="#linearGradient3061-4"
       gradientUnits="userSpaceOnUse"
       gradientTransform="matrix(0.87826988,0,0,0.87826988,120.30601,-90.957017)" />
    <linearGradient
       id="linearGradient3077-1">
      <stop
         id="stop3079-5"
         style="stop-color:#98a0a9;stop-opacity:1"
         offset="0" />
      <stop
         id="stop3081-9"
         style="stop-color:#c3d0dd;stop-opacity:1"
         offset="1" />
    </linearGradient>
    <linearGradient
       x1="29.555725"
       y1="17.722818"
       x2="30.433241"
       y2="18.629581"
       id="linearGradient3758-7"
       xlink:href="#linearGradient3077-1"
       gradientUnits="userSpaceOnUse"
       gradientTransform="matrix(0.87827,0,0,0.87827,150.91626,23.296793)" />
    <linearGradient
       id="linearGradient3805-8">
      <stop
         id="stop3807-3"
         style="stop-color:#c27e13;stop-opacity:1"
         offset="0" />
      <stop
         id="stop3813-6"
         style="stop-color:#c27e13;stop-opacity:0.49803922"
         offset="0.26878971" />
      <stop
         id="stop3809-4"
         style="stop-color:#c27e13;stop-opacity:0.9741379"
         offset="1" />
    </linearGradient>
    <linearGradient
       x1="15.909903"
       y1="29.261671"
       x2="18.384775"
       y2="31.736544"
       id="linearGradient3811-9"
       xlink:href="#linearGradient3805-8"
       gradientUnits="userSpaceOnUse"
       gradientTransform="matrix(0.70710678,-0.70710678,0.70710678,0.70710678,118.87476,36.669709)" />
    <linearGradient
       x1="-32.163666"
       y1="11.982862"
       x2="-34.732647"
       y2="14.757363"
       id="linearGradient3820"
       xlink:href="#linearGradient3742"
       gradientUnits="userSpaceOnUse"
       gradientTransform="translate(69.519608,-1.684877)" />
    <linearGradient
       x1="15.909903"
       y1="29.261671"
       x2="18.384775"
       y2="31.736544"
       id="linearGradient3811"
       xlink:href="#linearGradient3805"
       gradientUnits="userSpaceOnUse" />
    <linearGradient
       x1="38.227654"
       y1="13.602527"
       x2="37.53537"
       y2="6.6285896"
       id="linearGradient3760"
       xlink:href="#linearGradient3077"
       gradientUnits="userSpaceOnUse"
       gradientTransform="matrix(0.87827,0,0,0.87827,1.8671111,3.903835)" />
    <linearGradient
       x1="29.555725"
       y1="17.722818"
       x2="30.433241"
       y2="18.629581"
       id="linearGradient3758"
       xlink:href="#linearGradient3077"
       gradientUnits="userSpaceOnUse"
       gradientTransform="matrix(0.87827,0,0,0.87827,1.8671111,3.903835)" />
    <linearGradient
       x1="-32.163666"
       y1="11.982862"
       x2="-34.732647"
       y2="14.757363"
       id="linearGradient3748"
       xlink:href="#linearGradient3742"
       gradientUnits="userSpaceOnUse"
       gradientTransform="translate(69.519608,-1.684877)" />
    <linearGradient
       id="WhiteTransparent-1">
      <stop
         id="stop3545"
         style="stop-color:#ffffff;stop-opacity:1"
         offset="0" />
      <stop
         id="stop3547"
         style="stop-color:#ffffff;stop-opacity:0"
         offset="1" />
    </linearGradient>
    <linearGradient
       id="BlackTransparent-0">
      <stop
         id="stop3550"
         style="stop-color:#000000;stop-opacity:1"
         offset="0" />
      <stop
         id="stop3552"
         style="stop-color:#000000;stop-opacity:0"
         offset="1" />
    </linearGradient>
    <linearGradient
       x1="637.03003"
       y1="69.989998"
       x2="638.29999"
       y2="118.3"
       id="lg1999-8"
       xlink:href="#WhiteTransparent-1"
       gradientUnits="userSpaceOnUse"
       gradientTransform="matrix(0.1,0.1,-0.22,0.2,75.6,-33.53)" />
    <linearGradient
       x1="512.70001"
       y1="254.36"
       x2="615.59003"
       y2="254.83"
       id="lg02-7"
       xlink:href="#WhiteTransparent-1"
       gradientUnits="userSpaceOnUse"
       gradientTransform="matrix(0.0807,0.0775,-0.35,0.36,77.14,-45.89)" />
    <linearGradient
       x1="543.09998"
       y1="286.56"
       x2="419.88"
       y2="286.56"
       id="lg05-6"
       xlink:href="#BlackTransparent-0"
       gradientUnits="userSpaceOnUse"
       gradientTransform="matrix(0.0998,0.0998,-0.28,0.28,78.84,-44.8)"
       spreadMethod="pad" />
    <linearGradient
       x1="258.95999"
       y1="62.740002"
       x2="258.95999"
       y2="-1.72"
       id="lg09-3"
       xlink:href="#WhiteTransparent-1"
       gradientUnits="userSpaceOnUse"
       gradientTransform="matrix(0.33,0.33,-0.0944,0.0944,9.03,-48.1)" />
    <linearGradient
       x1="146.14999"
       y1="288.57001"
       x2="146.14999"
       y2="368.26999"
       id="lg12-5"
       xlink:href="#WhiteTransparent-1"
       gradientUnits="userSpaceOnUse"
       gradientTransform="matrix(0.3,0.3,-0.09,0.09,78.84,-44.8)" />
    <linearGradient
       x1="577.03003"
       y1="124"
       x2="626.09998"
       y2="124"
       id="lg16-0"
       xlink:href="#WhiteTransparent-1"
       gradientUnits="userSpaceOnUse"
       gradientTransform="matrix(0.0775,0.0775,-0.36,0.36,78.84,-44.8)"
       spreadMethod="pad" />
    <linearGradient
       x1="2482.957"
       y1="6145.3076"
       x2="2375.4978"
       y2="6037.5259"
       id="lg19-8"
       xlink:href="#BlackTransparent-0"
       gradientUnits="userSpaceOnUse" />
    <linearGradient
       x1="646.23999"
       y1="-252.60001"
       x2="607.65997"
       y2="-186.25999"
       id="lg51-0"
       xlink:href="#WhiteTransparent-1"
       gradientUnits="userSpaceOnUse"
       gradientTransform="matrix(0.2,0,0,0.2,-80.94,88.3)" />
    <linearGradient
       x1="550.96002"
       y1="-137.5"
       x2="655.41998"
       y2="-241.2"
       id="lg55-4"
       xlink:href="#WhiteTransparent-1"
       gradientUnits="userSpaceOnUse"
       gradientTransform="matrix(0.26,0,0,0.26,-106.57,101.57)" />
    <linearGradient
       x1="73.879997"
       y1="66.199997"
       x2="84.300003"
       y2="86.68"
       id="lgdg-1"
       xlink:href="#BlackTransparent-0"
       gradientUnits="userSpaceOnUse"
       gradientTransform="translate(-0.30267,-3.20138)" />
    <clipPath
       id="clipoutline1-1">
      <path
         d="m 22.42,17.2 12.96,12.95 -2.5,8.78 -8.78,2.5 -12.96,-12.96 -5.86,5.86 14.89,21.46 17.56,-3.34 61.63,65.62 c 9.44,9.51 22.17,-4.75 13.34,-12.87 L 46.85,42.92 50.86,25.16 28.72,10.89 22.42,17.2 z m 81.06,91.97 c 1.68,-1.68 4.4,-1.68 6.08,0 1.68,1.68 1.68,4.4 0,6.08 -1.68,1.67 -4.4,1.67 -6.08,0 -1.68,-1.68 -1.68,-4.4 0,-6.08 z"
         id="outline1-3" />
    </clipPath>
    <clipPath
       id="clipoutline2-5">
      <path
         d="m 55.8,12 0.76,0.16 c 8.84,-2.94 28.68,8.64 24.26,18.96 -1.12,1.62 -0.93,4.5 0.42,6.31 L 56.43,62.25 c -1.39,-1.39 -4.48,-1.36 -5.9,0 L 9.5,101.63 c -3.74,3.59 -0.8,6.64 0.78,8.25 l 7.36,7.36 c 1.61,1.6 5.86,3.76 8.88,0.56 L 65.24,76.99 c 1.35,-1.42 1.36,-4.47 0,-5.87 0,0 0.01,-0.02 0,-0.02 L 90.15,46.2 c 2.63,2.37 5.113827,2.574854 7.47,1.93 4.55057,-1.245432 7.08725,3.206643 9.81,6.46 l -1.23,1.21 c -1.82,1.84 -1.65,4.94 0.39,6.98 2.04,2.04 5.15,2.21 6.97,0.39 l 8.14,-8.13 c 1.82,-1.84 1.65,-4.94 -0.4,-6.97 -1.84,-1.85 -4.51,-2.09 -6.37,-0.77 -5.58,-6.26 -2.65,-7.2 -10.01,-15.35 L 91.13,17.86 C 81.2,8.12 68.3,8.13 55.8,12 z"
         id="outline2-9" />
    </clipPath>
    <filter
       filterUnits="userSpaceOnUse"
       x="0"
       y="0"
       color-interpolation-filters="sRGB"
       id="ShadowBlur-3">
      <feGaussianBlur
         id="feGaussianBlur6-4"
         stdDeviation="2"
         in="SourceGraphic" />
    </filter>
    <linearGradient
       id="WhiteTransparent">
      <stop
         id="stop3267"
         style="stop-color:#ffffff;stop-opacity:1"
         offset="0" />
      <stop
         id="stop3269"
         style="stop-color:#ffffff;stop-opacity:0"
         offset="1" />
    </linearGradient>
    <linearGradient
       id="BlackTransparent">
      <stop
         id="stop3272"
         style="stop-color:#000000;stop-opacity:1"
         offset="0" />
      <stop
         id="stop3274"
         style="stop-color:#000000;stop-opacity:0"
         offset="1" />
    </linearGradient>
    <linearGradient
       x1="637.03003"
       y1="69.989998"
       x2="638.29999"
       y2="118.3"
       id="lg1999"
       xlink:href="#WhiteTransparent"
       gradientUnits="userSpaceOnUse"
       gradientTransform="matrix(0.1,0.1,-0.22,0.2,75.6,-33.53)" />
    <linearGradient
       x1="512.70001"
       y1="254.36"
       x2="615.59003"
       y2="254.83"
       id="lg02"
       xlink:href="#WhiteTransparent"
       gradientUnits="userSpaceOnUse"
       gradientTransform="matrix(0.0807,0.0775,-0.35,0.36,77.14,-45.89)" />
    <linearGradient
       x1="543.09998"
       y1="286.56"
       x2="419.88"
       y2="286.56"
       id="lg05"
       xlink:href="#BlackTransparent"
       gradientUnits="userSpaceOnUse"
       gradientTransform="matrix(0.0998,0.0998,-0.28,0.28,78.84,-44.8)"
       spreadMethod="pad" />
    <linearGradient
       x1="258.95999"
       y1="62.740002"
       x2="258.95999"
       y2="-1.72"
       id="lg09"
       xlink:href="#WhiteTransparent"
       gradientUnits="userSpaceOnUse"
       gradientTransform="matrix(0.33,0.33,-0.0944,0.0944,9.03,-48.1)" />
    <linearGradient
       x1="146.14999"
       y1="288.57001"
       x2="146.14999"
       y2="368.26999"
       id="lg12"
       xlink:href="#WhiteTransparent"
       gradientUnits="userSpaceOnUse"
       gradientTransform="matrix(0.3,0.3,-0.09,0.09,78.84,-44.8)" />
    <linearGradient
       x1="577.03003"
       y1="124"
       x2="626.09998"
       y2="124"
       id="lg16"
       xlink:href="#WhiteTransparent"
       gradientUnits="userSpaceOnUse"
       gradientTransform="matrix(0.0775,0.0775,-0.36,0.36,78.84,-44.8)"
       spreadMethod="pad" />
    <linearGradient
       x1="75.099998"
       y1="189.14"
       x2="71.769997"
       y2="185.8"
       id="lg19"
       xlink:href="#BlackTransparent"
       gradientTransform="matrix(1.05,0,0,1.05,0.13,-140.54)" />
    <linearGradient
       x1="646.23999"
       y1="-252.60001"
       x2="607.65997"
       y2="-186.25999"
       id="lg51"
       xlink:href="#WhiteTransparent"
       gradientUnits="userSpaceOnUse"
       gradientTransform="matrix(0.2,0,0,0.2,-80.94,88.3)" />
    <linearGradient
       x1="550.96002"
       y1="-137.5"
       x2="655.41998"
       y2="-241.2"
       id="lg55"
       xlink:href="#WhiteTransparent"
       gradientUnits="userSpaceOnUse"
       gradientTransform="matrix(0.26,0,0,0.26,-106.57,101.57)" />
    <linearGradient
       x1="73.879997"
       y1="66.199997"
       x2="84.300003"
       y2="86.68"
       id="lgdg"
       xlink:href="#BlackTransparent"
       gradientUnits="userSpaceOnUse"
       gradientTransform="translate(-0.30267,-3.20138)" />
    <clipPath
       id="clipoutline1">
      <path
         d="m 22.42,17.2 12.96,12.95 -2.5,8.78 -8.78,2.5 -12.96,-12.96 -5.86,5.86 14.89,21.46 17.56,-3.34 61.63,65.62 c 9.44,9.51 22.17,-4.75 13.34,-12.87 L 46.85,42.92 50.86,25.16 28.72,10.89 22.42,17.2 z m 81.06,91.97 c 1.68,-1.68 4.4,-1.68 6.08,0 1.68,1.68 1.68,4.4 0,6.08 -1.68,1.67 -4.4,1.67 -6.08,0 -1.68,-1.68 -1.68,-4.4 0,-6.08 z"
         id="outline1" />
    </clipPath>
    <clipPath
       id="clipoutline2">
      <path
         d="m 55.8,12 0.76,0.16 c 8.84,-2.94 28.68,8.64 24.26,18.96 -1.12,1.62 -0.93,4.5 0.42,6.31 L 56.43,62.25 c -1.39,-1.39 -4.48,-1.36 -5.9,0 L 9.5,101.63 c -3.74,3.59 -0.8,6.64 0.78,8.25 l 7.36,7.36 c 1.61,1.6 5.86,3.76 8.88,0.56 L 65.24,76.99 c 1.35,-1.42 1.36,-4.47 0,-5.87 0,0 0.01,-0.02 0,-0.02 L 90.15,46.2 c 2.63,2.37 5.113827,2.574854 7.47,1.93 4.55057,-1.245432 7.08725,3.206643 9.81,6.46 l -1.23,1.21 c -1.82,1.84 -1.65,4.94 0.39,6.98 2.04,2.04 5.15,2.21 6.97,0.39 l 8.14,-8.13 c 1.82,-1.84 1.65,-4.94 -0.4,-6.97 -1.84,-1.85 -4.51,-2.09 -6.37,-0.77 -5.58,-6.26 -2.65,-7.2 -10.01,-15.35 L 91.13,17.86 C 81.2,8.12 68.3,8.13 55.8,12 z"
         id="outline2" />
    </clipPath>
    <filter
       filterUnits="userSpaceOnUse"
       x="0"
       y="0"
       color-interpolation-filters="sRGB"
       id="ShadowBlur">
      <feGaussianBlur
         id="feGaussianBlur6"
         stdDeviation="2"
         in="SourceGraphic" />
    </filter>
    <radialGradient
       cx="24.8125"
       cy="39.125"
       r="17.6875"
       fx="24.8125"
       fy="39.125"
       id="radialGradient3145"
       xlink:href="#linearGradient3041"
       gradientUnits="userSpaceOnUse"
       gradientTransform="matrix(1,0,0,0.374558,0,24.47041)" />
    <linearGradient
       x1="12.004697"
       y1="35.688461"
       x2="10.650805"
       y2="33.194965"
       id="linearGradient3139"
       xlink:href="#linearGradient2257"
       gradientUnits="userSpaceOnUse"
       gradientTransform="matrix(1.007254,-0.02636526,0.02636526,1.007254,1.0126591,-1.2060461)" />
    <radialGradient
       cx="24.8125"
       cy="39.125"
       r="17.6875"
       fx="24.8125"
       fy="39.125"
       id="radialGradient2260"
       xlink:href="#linearGradient3041"
       gradientUnits="userSpaceOnUse"
       gradientTransform="matrix(1,0,0,0.374558,0,24.47041)" />
    <linearGradient
       x1="50.152931"
       y1="-3.6324477"
       x2="25.291086"
       y2="-4.3002653"
       id="linearGradient3067"
       xlink:href="#linearGradient3061"
       gradientUnits="userSpaceOnUse"
       gradientTransform="matrix(0.87826988,0,0,0.87826988,1.6925621,2.9668149)" />
    <linearGradient
       x1="19.648342"
       y1="42.253601"
       x2="20.631224"
       y2="6.7758031"
       id="linearGradient3055"
       xlink:href="#linearGradient3049"
       gradientUnits="userSpaceOnUse"
       gradientTransform="matrix(0.87827,0,0,0.87827,-0.9434039,3.282804)" />
    <linearGradient
       id="linearGradient3041">
      <stop
         id="stop3043"
         style="stop-color:#000000;stop-opacity:1"
         offset="0" />
      <stop
         id="stop3045"
         style="stop-color:#000000;stop-opacity:0"
         offset="1" />
    </linearGradient>
    <linearGradient
       id="linearGradient3049">
      <stop
         id="stop3051"
         style="stop-color:#b6b6b6;stop-opacity:1"
         offset="0" />
      <stop
         id="stop2262"
         style="stop-color:#f2f2f2;stop-opacity:1"
         offset="0.5" />
      <stop
         id="stop2264"
         style="stop-color:#fafafa;stop-opacity:1"
         offset="0.67612958" />
      <stop
         id="stop2268"
         style="stop-color:#d8d8d8;stop-opacity:1"
         offset="0.84051722" />
      <stop
         id="stop2266"
         style="stop-color:#f2f2f2;stop-opacity:1"
         offset="0.875" />
      <stop
         id="stop3053"
         style="stop-color:#dbdbdb;stop-opacity:1"
         offset="1" />
    </linearGradient>
    <linearGradient
       id="linearGradient3061">
      <stop
         id="stop3063"
         style="stop-color:#ffffff;stop-opacity:1"
         offset="0" />
      <stop
         id="stop3065"
         style="stop-color:#000000;stop-opacity:1"
         offset="1" />
    </linearGradient>
    <linearGradient
       id="linearGradient3077">
      <stop
         id="stop3079"
         style="stop-color:#98a0a9;stop-opacity:1"
         offset="0" />
      <stop
         id="stop3081"
         style="stop-color:#c3d0dd;stop-opacity:1"
         offset="1" />
    </linearGradient>
    <linearGradient
       id="linearGradient3087">
      <stop
         id="stop3089"
         style="stop-color:#3465a4;stop-opacity:1"
         offset="0" />
      <stop
         id="stop3095"
         style="stop-color:#9fbce1;stop-opacity:1"
         offset="0" />
      <stop
         id="stop2242"
         style="stop-color:#6b95ca;stop-opacity:1"
         offset="0" />
      <stop
         id="stop2244"
         style="stop-color:#3d6aa5;stop-opacity:1"
         offset="0.75" />
      <stop
         id="stop3091"
         style="stop-color:#386eb4;stop-opacity:1"
         offset="1" />
    </linearGradient>
    <linearGradient
       id="linearGradient2257">
      <stop
         id="stop2259"
         style="stop-color:#ffffff;stop-opacity:1"
         offset="0" />
      <stop
         id="stop2261"
         style="stop-color:#ffffff;stop-opacity:0"
         offset="1" />
    </linearGradient>
    <linearGradient
       id="linearGradient3742">
      <stop
         id="stop3744"
         style="stop-color:#666864;stop-opacity:1"
         offset="0" />
      <stop
         id="stop3750"
         style="stop-color:#494a47;stop-opacity:0.49803922"
         offset="0.5" />
      <stop
         id="stop3746"
         style="stop-color:#666864;stop-opacity:1"
         offset="1" />
    </linearGradient>
    <linearGradient
       id="linearGradient3805">
      <stop
         id="stop3807"
         style="stop-color:#c27e13;stop-opacity:1"
         offset="0" />
      <stop
         id="stop3813"
         style="stop-color:#c27e13;stop-opacity:0.49803922"
         offset="0.26878971" />
      <stop
         id="stop3809"
         style="stop-color:#c27e13;stop-opacity:0.9741379"
         offset="1" />
    </linearGradient>
    <linearGradient
       x1="336.39359"
       y1="569.28033"
       x2="366.29254"
       y2="569.28033"
       id="linearGradient4200"
       xlink:href="#linearGradient4192"
       gradientUnits="userSpaceOnUse"
       gradientTransform="matrix(8.5458783,0,0,8.5458783,-2794.9897,-4460.7908)" />
  </defs>
  <metadata
     id="metadata7">
    <rdf:RDF>
      <cc:Work
         rdf:about="">
        <dc:format>image/svg+xml</dc:format>
        <dc:type
           rdf:resource="http://purl.org/dc/dcmitype/StillImage" />
        <dc:title></dc:title>
      </cc:Work>
    </rdf:RDF>
  </metadata>
  <g
     transform="translate(29.29542,-226.80051)"
     id="layer1">
    <g
       transform="matrix(8.4109392,0,0,8.6829824,-12.616586,203.89418)"
       id="layer1-2">
      <path
         d="m 42.5,39.125 a 17.6875,6.625 0 1 1 -35.375,0 17.6875,6.625 0 1 1 35.375,0 z"
         transform="matrix(0.751118,0,0,0.578703,13.560478,17.678533)"
         id="path2258"
         style="opacity:0.19886367;color:#000000;fill:url(#radialGradient2260);fill-opacity:1;fill-rule:nonzero;stroke:none;stroke-width:1;marker:none;visibility:visible;display:inline;overflow:visible" />
      <path
         d="m 42.5,39.125 a 17.6875,6.625 0 1 1 -35.375,0 17.6875,6.625 0 1 1 35.375,0 z"
         transform="matrix(0.836071,0,0,0.685436,-7.9399989,15.032933)"
         id="path3039"
         style="opacity:0.3125;color:#000000;fill:url(#radialGradient3145);fill-opacity:1;fill-rule:nonzero;stroke:none;stroke-width:1;marker:none;visibility:visible;display:inline;overflow:visible" />
      <path
         d="M 14.426321,19.530799 33.41891,38.962523 c 0.768486,0.87827 3.20351,1.557061 4.830485,0 1.571126,-1.503613 1.207621,-3.622864 -0.329351,-5.159837 L 19.695941,14.261179 c 2.25,-6.25 -2.303889,-11.499568 -8.178889,-10.374568 l -1.262514,1.1527294 3.952215,3.7326476 0.219568,3.293516 -2.950842,2.693603 L 7.94908,14.370963 4.3262171,10.967667 c 0,0 -1.270122,1.254904 -1.270122,1.254904 -0.590763,5.641317 5.3077259,10.683228 11.3702259,7.308228 z"
         id="path2140"
         style="color:#000000;fill:url(#linearGradient3055);fill-opacity:1;fill-rule:nonzero;stroke:#888a85;stroke-width:0.9999997;stroke-linecap:butt;stroke-linejoin:miter;stroke-miterlimit:4;stroke-opacity:1;stroke-dasharray:none;stroke-dashoffset:0;marker:none;visibility:visible;display:inline;overflow:visible" />
      <path
         d="m 14.636993,18.255223 19.202882,20.027612 c 0.594907,0.679893 2.479927,1.205365 3.739414,0 1.216253,-1.163989 0.934853,-2.80456 -0.25496,-3.994374 L 18.832797,14.667306 c 1.5,-6.5 -1.858788,-10.0046375 -6.858788,-9.8796375 l -0.270131,0.2733768 3.602923,3.2362667 0.130166,4.181794 -3.613917,3.298483 -4.242306,-0.458209 -3.1765819,-2.991481 -0.352638,0.430059 c -0.3125,5.96875 6.4917189,8.684765 10.5854689,5.497265 z"
         id="path3057"
         style="opacity:0.42613639;color:#000000;fill:none;stroke:#ffffff;stroke-width:0.99999917;stroke-linecap:butt;stroke-linejoin:miter;stroke-miterlimit:4;stroke-opacity:1;stroke-dasharray:none;stroke-dashoffset:0;marker:none;visibility:visible;display:inline;overflow:visible" />
      <rect
         width="23.268272"
         height="2.055491"
         rx="0.88388062"
         ry="0.88388062"
         x="24.549597"
         y="-1.3018785"
         transform="matrix(0.69793809,0.7161581,-0.7161581,0.69793809,0,0)"
         id="rect3059"
         style="opacity:0.17045456;color:#000000;fill:none;stroke:url(#linearGradient3067);stroke-width:0.99999708;stroke-linecap:butt;stroke-linejoin:miter;stroke-miterlimit:4;stroke-opacity:1;stroke-dasharray:none;stroke-dashoffset:0;marker:none;visibility:visible;display:inline;overflow:visible" />
      <path
         d="m 43.25,37.5 a 1.375,1.375 0 1 1 -2.75,0 1.375,1.375 0 1 1 2.75,0 z"
         transform="matrix(0.87827,0,0,0.87827,-1.0531879,3.392587)"
         id="path2146"
         style="color:#000000;fill:#ffffff;fill-opacity:1;fill-rule:nonzero;stroke:#a1a1a1;stroke-width:1.13860166;stroke-linecap:butt;stroke-linejoin:miter;stroke-miterlimit:4;stroke-opacity:1;stroke-dasharray:none;stroke-dashoffset:0;marker:none;visibility:visible;display:inline;overflow:visible" />
      <g
         transform="matrix(0.70710678,0.70710678,-0.70710678,0.70710678,-66.505551,-125.50913)"
         id="g4721">
        <path
           d="m 171.04228,65.702992 c 2.28219,-0.05133 2.24901,-2.610868 2.18061,-5.344146 -0.11958,-4.781402 -0.82929,-4.219524 -0.97878,-10.196283 -0.14948,-5.976752 0.39385,-17.60825 0.39385,-17.60825 -0.0476,-1.904867 0.28281,-4.437364 -3.28589,-4.203494 -3.5687,-0.23387 -3.23825,2.298627 -3.28589,4.203494 0,0 0.54333,11.631498 0.39385,17.60825 -0.14949,5.976759 -0.8592,5.414881 -0.97878,10.196283 -0.0684,2.733278 -0.10158,5.292819 2.18061,5.344146 0,0 -0.16595,0.01887 1.69021,0.01887 1.85616,0 1.69021,-0.01887 1.69021,-0.01887 z"
           id="path3930"
           style="color:#000000;fill:#e9b96e;fill-opacity:1;fill-rule:nonzero;stroke:#8f5902;stroke-width:0.9999997;stroke-linecap:butt;stroke-linejoin:miter;stroke-miterlimit:4;stroke-opacity:1;stroke-dashoffset:0;marker:none;visibility:visible;display:inline;overflow:visible" />
        <path
           d="m 169.25,29.84375 0.0937,0 0.0937,0 c 0.71741,-0.04701 1.09477,0.07913 1.25,0.15625 0.15523,0.07712 0.17681,0.08319 0.25,0.25 0.13862,0.315936 0.16244,1.231053 0.1875,2.21875 0,0 5e-5,0.123852 0,0.125 -0.008,0.161592 -0.52689,11.520677 -0.375,17.59375 0.0763,3.048871 0.31707,4.559136 0.53125,5.78125 0.21418,1.222114 0.3796,2.122413 0.4375,4.4375 0.0341,1.360997 0.0171,2.612163 -0.15625,3.25 -0.0866,0.318919 -0.18098,0.434184 -0.21875,0.46875 l -3.96885,0 c -0.0378,-0.03457 -0.16335,-0.149831 -0.25,-0.46875 -0.1733,-0.637837 -0.19031,-1.889003 -0.15625,-3.25 0.0579,-2.315087 0.25457,-3.215386 0.46875,-4.4375 0.21418,-1.222114 0.45499,-2.732379 0.53125,-5.78125 0.15189,-6.073076 -0.39864,-17.432171 -0.40625,-17.59375 3.5e-4,-0.01399 -3.5e-4,-0.0173 0,-0.03125 -3e-5,-6.46e-4 0,-0.09375 0,-0.09375 0.0251,-0.987718 0.0489,-1.902811 0.1875,-2.21875 0.0732,-0.166809 0.0948,-0.172884 0.25,-0.25 0.15523,-0.07712 0.53259,-0.203264 1.25,-0.15625 z"
           id="path3933"
           style="font-size:medium;font-style:normal;font-variant:normal;font-weight:normal;font-stretch:normal;text-indent:0;text-align:start;text-decoration:none;line-height:normal;letter-spacing:normal;word-spacing:normal;text-transform:none;direction:ltr;block-progression:tb;writing-mode:lr-tb;text-anchor:start;baseline-shift:baseline;color:#000000;fill:url(#linearGradient4725);fill-opacity:1;fill-rule:nonzero;stroke:none;stroke-width:3;marker:none;visibility:visible;display:inline;overflow:visible;enable-background:accumulate;font-family:Sans;-inkscape-font-specification:Sans" />
      </g>
      <g
         transform="matrix(0.99994307,0.01067021,-0.01067021,0.99994307,-0.7495296,-0.03414607)"
         id="g3815">
        <path
           d="m 21.733036,4.2895778 0.277332,0.042544 c 3.129991,-1.2369372 10.517617,2.5440684 9.129271,6.3548182 -0.371659,0.606706 -0.245638,1.641758 0.277448,2.267696 l 3.388978,2.985578 c 0.995974,0.802387 1.896004,0.826701 2.733027,0.547066 1.616576,-0.540072 2.620446,1.015203 3.667507,2.134373 l -0.419521,0.46101 c -0.619764,0.700034 -0.496567,1.814841 0.280001,2.509971 0.776567,0.695128 1.901769,0.694372 2.521932,0.0016 l 2.7739,-3.095049 c 0.619765,-0.700034 0.496566,-1.814842 -0.283408,-2.506164 -0.700634,-0.630586 -1.668519,-0.663861 -2.313092,-0.150598 -2.137713,-2.146665 -1.099596,-2.544216 -3.917097,-5.337092 L 34.593883,5.6981833 C 30.817619,2.3830766 26.164662,2.6441733 21.733036,4.2896256 z"
           id="path3732"
           style="fill:url(#linearGradient3820);fill-opacity:1;stroke:none" />
        <path
           d="m 27.582108,3.096373 c -1.931616,0.00639 -3.904914,0.4676146 -5.84375,1.1875 l 0.28125,0.0625 c 3.129991,-1.2369372 10.513346,2.5329998 9.125,6.34375 -0.371659,0.606706 -0.241836,1.624062 0.28125,2.25 l 3.375,3 c 0.995974,0.802387 1.912977,0.842135 2.75,0.5625 1.616576,-0.540072 2.609189,1.00583 3.65625,2.125 l -0.40625,0.46875 c -0.619764,0.700034 -0.495318,1.80487 0.28125,2.5 0.776567,0.695128 1.879837,0.692772 2.5,0 l 2.78125,-3.09375 c 0.619765,-0.700034 0.498724,-1.808678 -0.28125,-2.5 -0.700634,-0.630586 -1.667927,-0.669513 -2.3125,-0.15625 -2.137713,-2.146665 -1.088749,-2.550874 -3.90625,-5.34375 l -5.28125,-4.8125 c -2.124148,-1.8647475 -4.516494,-2.6019669 -7,-2.59375 z m 2.3125,1.875 c 1.286595,0.3229951 2.535902,0.8383499 3.6875,1.84375 0.0072,0.00628 0.02406,-0.00631 0.03125,0 l 5.21875,4.8125 c 1.245645,1.246066 1.544657,1.81074 1.875,2.46875 0.337666,0.672597 0.812808,1.620337 2,2.8125 l 0.9375,0.9375 1.0625,-0.84375 c 0.04744,-0.03777 0.165431,-0.09487 0.375,0.09375 l 0,0.03125 c 0.239625,0.212389 0.186689,0.340618 0.15625,0.375 l -2.78125,3.09375 c -0.01914,0.02138 -0.135341,0.08953 -0.375,-0.125 -0.226174,-0.202455 -0.217574,-0.329532 -0.1875,-0.375 0.002,-0.0031 -0.0019,-0.02907 0,-0.03125 l 0.40625,-0.4375 0.9375,-1.03125 -0.9375,-1 c -0.450094,-0.481091 -0.979142,-1.210212 -1.78125,-1.84375 -0.802108,-0.633538 -2.161514,-1.124227 -3.46875,-0.6875 -0.484354,0.161814 -0.654656,0.213761 -1.25,-0.25 l -0.0625,-0.03125 -3.15625,-2.78125 c -0.0042,-0.005 0.0036,-0.02347 0,-0.03125 -0.05479,-0.118961 -0.05906,-0.536691 -0.125,-0.53125 l 0.03125,-0.09375 0.0625,-0.15625 c 0.520861,-1.429665 0.187889,-2.9158091 -0.53125,-4.0625 -0.535535,-0.8539272 -1.303683,-1.5449522 -2.125,-2.15625 z"
           id="path3723"
           style="font-size:medium;font-style:normal;font-variant:normal;font-weight:normal;font-stretch:normal;text-indent:0;text-align:start;text-decoration:none;line-height:normal;letter-spacing:normal;word-spacing:normal;text-transform:none;direction:ltr;block-progression:tb;writing-mode:lr-tb;text-anchor:start;baseline-shift:baseline;color:#000000;fill:#babdb6;fill-opacity:1;stroke:none;stroke-width:3;marker:none;visibility:visible;display:inline;overflow:visible;enable-background:accumulate;font-family:Sans;-inkscape-font-specification:Sans" />
        <path
           d="m 22.025169,3.8662307 0.275714,0.052011 c 3.170491,-1.1290894 10.424385,2.9025409 8.90643,6.6635423 -0.392205,0.59363 -0.301683,1.632389 0.199674,2.275863 l 3.284812,3.099816 c 0.967929,0.836004 1.8666,0.891107 2.712703,0.640283 1.634113,-0.484429 2.584166,1.104292 3.59231,2.258642 l -0.435053,0.446382 c -0.64336,0.678412 -0.558389,1.796783 0.193934,2.518083 0.752321,0.721299 1.87689,0.759053 2.520399,0.08791 l 2.878203,-2.9983 c 0.64336,-0.678413 0.558387,-1.796784 -0.197469,-2.514395 -0.678642,-0.654196 -1.644821,-0.720577 -2.306583,-0.229675 -2.062992,-2.21857 -1.011877,-2.580359 -3.732142,-5.468027 L 34.830273,5.7141704 C 31.16968,2.2717641 26.510513,2.3734615 22.025168,3.8662785 z"
           id="use3311"
           style="fill:none;stroke:#555753" />
      </g>
    </g>
    <text
       x="52.54808"
       y="534.23236"
       transform="scale(0.98421002,1.0160433)"
       id="text2989"
       xml:space="preserve"
       style="font-size:439.05233765px;font-style:normal;font-variant:normal;font-weight:bold;font-stretch:normal;line-height:125%;letter-spacing:0px;word-spacing:0px;fill:url(#linearGradient4200);fill-opacity:1;stroke:#404040;stroke-width:8.54587841;stroke-opacity:1;font-family:Courier New;-inkscape-font-specification:Courier New Bold"><tspan
         x="52.54808"
         y="534.23236"
         id="tspan2991"
         style="font-style:normal;fill:url(#linearGradient4200);fill-opacity:1;stroke:#404040;stroke-width:8.54587841;stroke-opacity:1;-inkscape-font-specification:Courier New Bold">S</tspan></text>
  </g>
  <style
     type="text/css"
     id="style3292" />
  <style
     type="text/css"
     id="style3570" />
</svg>
